<svg width="55" height="40" viewBox="0 0 55 40" fill="none" xmlns="http://www.w3.org/2000/svg">
<g opacity="0.75">
<path d="M21.2073 15.0921C21.0084 14.8907 20.736 14.7751 20.45 14.7705C20.164 14.766 19.8879 14.8729 19.6824 15.0678L14.1274 20.3356C14.0235 20.4341 13.9409 20.5521 13.8845 20.6825C13.8281 20.8129 13.799 20.9531 13.799 21.0947C13.799 21.2363 13.8281 21.3765 13.8845 21.5069C13.9409 21.6373 14.0235 21.7553 14.1274 21.8538L19.6856 27.1216C19.7864 27.2225 19.9069 27.3025 20.0398 27.357C20.1727 27.4115 20.3154 27.4394 20.4595 27.4389C20.6035 27.4385 20.7461 27.4098 20.8786 27.3545C21.0112 27.2992 21.1311 27.2184 21.2313 27.117C21.3314 27.0155 21.4098 26.8954 21.4618 26.7638C21.5139 26.6322 21.5384 26.4916 21.5341 26.3506C21.5297 26.2095 21.4966 26.0707 21.4365 25.9423C21.3765 25.814 21.2909 25.6988 21.1846 25.6034L16.4288 21.0952L21.1846 16.586C21.3899 16.3908 21.5075 16.1238 21.5118 15.8436C21.516 15.5635 21.4065 15.2931 21.2073 15.0921Z" fill="#6A51A2"/>
<path d="M33.4691 27.0974C33.668 27.2987 33.9404 27.4144 34.2264 27.4189C34.5124 27.4235 34.7885 27.3165 34.994 27.1217L40.549 21.8538C40.6529 21.7553 40.7355 21.6374 40.7919 21.507C40.8483 21.3765 40.8774 21.2364 40.8774 21.0947C40.8774 20.9531 40.8483 20.8129 40.7919 20.6825C40.7355 20.5521 40.6529 20.4341 40.549 20.3356L34.9908 15.0678C34.89 14.9669 34.7695 14.8869 34.6366 14.8324C34.5037 14.7779 34.361 14.7501 34.2169 14.7505C34.0729 14.7509 33.9303 14.7796 33.7978 14.8349C33.6652 14.8902 33.5453 14.971 33.4451 15.0725C33.345 15.1739 33.2666 15.294 33.2146 15.4256C33.1625 15.5573 33.138 15.6978 33.1423 15.8389C33.1467 15.98 33.1798 16.1188 33.2399 16.2471C33.2999 16.3754 33.3855 16.4907 33.4918 16.586L38.2476 21.0953L33.4918 25.6034C33.2865 25.7986 33.1689 26.0656 33.1646 26.3458C33.1604 26.626 33.2699 26.8963 33.4691 27.0974Z" fill="#6A51A2"/>
<path d="M22.9511 30.548C23.08 30.6004 23.2182 30.6273 23.3577 30.6272C23.5721 30.6272 23.7816 30.5645 23.9595 30.4473C24.1373 30.3301 24.2755 30.1635 24.3563 29.969L31.2745 13.3552C31.3286 13.2266 31.3563 13.0888 31.356 12.9496C31.3556 12.8105 31.3272 12.6728 31.2724 12.5445C31.2176 12.4161 31.1375 12.2997 31.0366 12.2017C30.9358 12.1038 30.8162 12.0264 30.6847 11.9739C30.5532 11.9213 30.4124 11.8948 30.2704 11.8957C30.1284 11.8966 29.988 11.925 29.8572 11.9793C29.7264 12.0335 29.6079 12.1125 29.5083 12.2117C29.4088 12.3109 29.3303 12.4285 29.2772 12.5575L22.3591 29.1713C22.2513 29.4308 22.2531 29.7216 22.3642 29.9798C22.4752 30.2379 22.6863 30.4423 22.9511 30.548Z" fill="#6A51A2"/>
<path d="M53.9216 32.0042H52.965V3.46117C52.9639 2.54356 52.5913 1.66384 51.929 1.01499C51.2667 0.366136 50.3687 0.00111836 49.4321 0H5.56794C4.6313 0.00111836 3.73334 0.366136 3.07104 1.01499C2.40873 1.66384 2.03614 2.54356 2.035 3.46117V32.0042H1.07843C0.792414 32.0042 0.51811 32.1155 0.315865 32.3137C0.11362 32.5118 0 32.7805 0 33.0607V35.4569C0 36.6618 0.488567 37.8174 1.35822 38.6694C2.22787 39.5214 3.40738 40 4.63725 40H50.3627C51.5926 40 52.7721 39.5214 53.6418 38.6694C54.5114 37.8174 55 36.6618 55 35.4569V33.0607C55 32.7805 54.8864 32.5118 54.6841 32.3137C54.4819 32.1155 54.2076 32.0042 53.9216 32.0042ZM4.19186 3.46117C4.19215 3.10371 4.33722 2.76098 4.59522 2.50821C4.85322 2.25545 5.20307 2.11333 5.56794 2.11305H49.4321C49.7969 2.11333 50.1468 2.25545 50.4048 2.50821C50.6628 2.76098 50.8079 3.10371 50.8081 3.46117V32.0042H4.19186V3.46117ZM52.8431 35.4569C52.8431 36.1014 52.5818 36.7195 52.1166 37.1752C51.6515 37.6309 51.0206 37.887 50.3627 37.887H4.63725C3.97941 37.887 3.34852 37.6309 2.88335 37.1752C2.41819 36.7195 2.15686 36.1014 2.15686 35.4569V34.1173H21.3249V34.4279C21.3255 34.9632 21.5428 35.4764 21.9292 35.8549C22.3155 36.2335 22.8394 36.4464 23.3858 36.4469H31.6142C32.1606 36.4464 32.6845 36.2335 33.0708 35.8549C33.4572 35.4764 33.6745 34.9632 33.6751 34.4279V34.1173H52.8431V35.4569Z" fill="#6A51A2"/>
<path d="M8.02555 6.88697C8.91202 6.88697 9.63065 6.1862 9.63065 5.32175C9.63065 4.4573 8.91202 3.75653 8.02555 3.75653C7.13907 3.75653 6.42044 4.4573 6.42044 5.32175C6.42044 6.1862 7.13907 6.88697 8.02555 6.88697Z" fill="#6A51A2"/>
<path d="M12.5198 6.88697C13.4063 6.88697 14.1249 6.1862 14.1249 5.32175C14.1249 4.4573 13.4063 3.75653 12.5198 3.75653C11.6334 3.75653 10.9147 4.4573 10.9147 5.32175C10.9147 6.1862 11.6334 6.88697 12.5198 6.88697Z" fill="#6A51A2"/>
<path d="M17.0141 6.88697C17.9006 6.88697 18.6192 6.1862 18.6192 5.32175C18.6192 4.4573 17.9006 3.75653 17.0141 3.75653C16.1277 3.75653 15.409 4.4573 15.409 5.32175C15.409 6.1862 16.1277 6.88697 17.0141 6.88697Z" fill="#6A51A2"/>
<path d="M3.23529 9.0625H51.7647" stroke="#6A51A2" stroke-width="3"/>
</g>
</svg>
