<svg width="55" height="40" viewBox="0 0 55 40" fill="none" xmlns="http://www.w3.org/2000/svg">
<g opacity="0.75">
<path d="M53.9216 32.0042H52.965V3.46117C52.9639 2.54356 52.5913 1.66384 51.929 1.01499C51.2667 0.366136 50.3687 0.00111836 49.4321 0H5.56794C4.6313 0.00111836 3.73334 0.366136 3.07104 1.01499C2.40873 1.66384 2.03614 2.54356 2.035 3.46117V32.0042H1.07843C0.792414 32.0042 0.51811 32.1155 0.315865 32.3137C0.11362 32.5118 0 32.7805 0 33.0608V35.4569C0 36.6618 0.488567 37.8174 1.35822 38.6694C2.22787 39.5214 3.40738 40 4.63726 40H50.3627C51.5926 40 52.7721 39.5214 53.6418 38.6694C54.5114 37.8174 55 36.6618 55 35.4569V33.0608C55 32.7805 54.8864 32.5118 54.6841 32.3137C54.4819 32.1155 54.2076 32.0042 53.9216 32.0042ZM4.19186 3.46117C4.19215 3.10371 4.33722 2.76098 4.59522 2.50821C4.85323 2.25545 5.20307 2.11333 5.56794 2.11305H49.4321C49.7969 2.11333 50.1468 2.25545 50.4048 2.50821C50.6628 2.76098 50.8079 3.10371 50.8081 3.46117V32.0042H4.19186V3.46117ZM52.8431 35.4569C52.8431 36.1014 52.5818 36.7195 52.1167 37.1752C51.6515 37.6309 51.0206 37.887 50.3627 37.887H4.63726C3.97941 37.887 3.34852 37.6309 2.88335 37.1752C2.41819 36.7195 2.15686 36.1014 2.15686 35.4569V34.1173H21.3249V34.4279C21.3255 34.9632 21.5428 35.4764 21.9292 35.8549C22.3155 36.2335 22.8394 36.4463 23.3858 36.4469H31.6142C32.1606 36.4463 32.6845 36.2335 33.0709 35.8549C33.4572 35.4764 33.6745 34.9632 33.6751 34.4279V34.1173H52.8431V35.4569Z" fill="#6A51A2"/>
</g>
</svg>
