<svg width="55" height="40" viewBox="0 0 55 40" fill="none" xmlns="http://www.w3.org/2000/svg">
<g opacity="0.75">
<path d="M53.9216 32.0042H52.965V3.46117C52.9639 2.54356 52.5913 1.66384 51.929 1.01499C51.2667 0.366136 50.3687 0.00111836 49.4321 0H5.56794C4.6313 0.00111836 3.73334 0.366136 3.07104 1.01499C2.40873 1.66384 2.03614 2.54356 2.035 3.46117V32.0042H1.07843C0.792414 32.0042 0.51811 32.1155 0.315865 32.3137C0.11362 32.5118 0 32.7805 0 33.0607V35.4569C0 36.6618 0.488567 37.8174 1.35822 38.6694C2.22787 39.5214 3.40738 40 4.63725 40H50.3627C51.5926 40 52.7721 39.5214 53.6418 38.6694C54.5114 37.8174 55 36.6618 55 35.4569V33.0607C55 32.7805 54.8864 32.5118 54.6841 32.3137C54.4819 32.1155 54.2076 32.0042 53.9216 32.0042ZM4.19186 3.46117C4.19215 3.10371 4.33722 2.76098 4.59522 2.50821C4.85322 2.25545 5.20307 2.11333 5.56794 2.11305H49.4321C49.7969 2.11333 50.1468 2.25545 50.4048 2.50821C50.6628 2.76098 50.8079 3.10371 50.8081 3.46117V32.0042H4.19186V3.46117ZM52.8431 35.4569C52.8431 36.1014 52.5818 36.7195 52.1166 37.1752C51.6515 37.6309 51.0206 37.887 50.3627 37.887H4.63725C3.97941 37.887 3.34852 37.6309 2.88335 37.1752C2.41819 36.7195 2.15686 36.1014 2.15686 35.4569V34.1173H21.3249V34.4279C21.3255 34.9632 21.5428 35.4764 21.9292 35.8549C22.3155 36.2335 22.8394 36.4464 23.3858 36.4469H31.6142C32.1606 36.4464 32.6845 36.2335 33.0708 35.8549C33.4572 35.4764 33.6745 34.9632 33.6751 34.4279V34.1173H52.8431V35.4569Z" fill="#6A51A2"/>
<path d="M8.02555 6.88697C8.91202 6.88697 9.63065 6.1862 9.63065 5.32175C9.63065 4.4573 8.91202 3.75653 8.02555 3.75653C7.13907 3.75653 6.42044 4.4573 6.42044 5.32175C6.42044 6.1862 7.13907 6.88697 8.02555 6.88697Z" fill="#6A51A2"/>
<path d="M12.5198 6.88697C13.4063 6.88697 14.125 6.1862 14.125 5.32175C14.125 4.4573 13.4063 3.75653 12.5198 3.75653C11.6334 3.75653 10.9147 4.4573 10.9147 5.32175C10.9147 6.1862 11.6334 6.88697 12.5198 6.88697Z" fill="#6A51A2"/>
<path d="M17.0141 6.88697C17.9006 6.88697 18.6192 6.1862 18.6192 5.32175C18.6192 4.4573 17.9006 3.75653 17.0141 3.75653C16.1277 3.75653 15.409 4.4573 15.409 5.32175C15.409 6.1862 16.1277 6.88697 17.0141 6.88697Z" fill="#6A51A2"/>
<path d="M3.23529 9.0625H51.7647" stroke="#6A51A2" stroke-width="2"/>
<path d="M43.3997 27.4991C43.3997 27.4991 44.014 25.887 43.9998 25.0064C43.9585 22.4194 40.5761 17.6984 39.0235 15.3815C38.8143 15.0691 38.4168 14.9287 38.0475 15.0353C37.6775 15.1423 37.4267 15.4717 37.4314 15.8432C37.4519 17.4924 36.1308 19.3467 34.9673 20.9826C33.8556 22.5457 32.8987 23.895 32.9192 25.1679C32.9426 26.624 33.5848 27.9441 34.5993 28.8955L35.1193 32.5H31.1831V15.8316C31.1831 15.3715 30.7977 15.0007 30.3191 15.0007H24.2547C23.7763 15.0007 23.3827 15.3715 23.3827 15.8316V32.5H21.3026V23.9985C21.3026 23.8823 21.2831 23.772 21.2386 23.6715C21.159 23.4925 17.6059 15.5213 17.5984 15.5046C17.2993 14.8337 16.3063 14.8317 16.0063 15.5046L12.3661 23.6715C12.349 23.7235 12.2941 23.819 12.2941 23.9985V29.1648C12.2941 29.1648 30.4799 29.1629 42.3837 29.1648C42.8001 28.7493 43.3997 27.4991 43.3997 27.4991ZM38.7275 18.0128C40.2246 20.2588 42.2384 23.4509 42.2637 25.0295C42.2959 27.0525 40.6157 28.7182 38.5115 28.7493H38.4555C36.389 28.7493 34.6793 27.1327 34.6473 25.1449C34.6246 23.7263 37.6442 20.8264 38.7275 18.0128ZM36.5194 30.0726C37.8554 30.558 39.2946 30.5101 40.5436 30.0226L40.2636 32.5H36.8714L36.5194 30.0726ZM14.0302 24.8333H15.9343V32.5H14.0302V24.8333ZM25.1188 16.6664H29.447V17.5011H27.7189C27.2403 17.5011 26.8549 17.872 26.8549 18.3321C26.8549 18.7923 27.2403 19.1669 27.7189 19.1669H29.447V20.0016H27.7189C27.2403 20.0016 26.8549 20.3724 26.8549 20.8326C26.8549 21.2927 27.2403 21.6673 27.7189 21.6673H29.447V22.4982H27.7189C27.2403 22.4982 26.8549 22.8729 26.8549 23.333C26.8549 23.7931 27.2403 24.1678 27.7189 24.1678H29.447V24.9987H27.7189C27.2403 24.9987 26.8549 25.3733 26.8549 25.8334C26.8549 26.2936 27.2403 26.6644 27.7189 26.6644H29.447V27.4991H27.7189C27.2403 27.4991 26.8549 27.8737 26.8549 28.3339C26.8549 28.794 27.2403 29.1648 27.7189 29.1648H29.447V29.9996H27.7189C27.2403 29.9996 26.8549 30.3742 26.8549 30.8343C26.8549 31.2945 27.2403 31.6652 27.7189 31.6652H29.447V32.5H25.1188V16.6664ZM17.6624 32.5V24.8333H19.5745V32.5H17.6624ZM16.7984 17.9474L19.1265 23.1676H14.4702L16.7984 17.9474ZM12.2941 29.1648V32.5H42.0077L42.3837 29.1648C41.9258 29.1599 19.5747 29.1648 12.2941 29.1648Z" fill="#6A51A2"/>
</g>
</svg>
