<svg width="55" height="40" viewBox="0 0 55 40" fill="none" xmlns="http://www.w3.org/2000/svg">
<g opacity="0.75">
<path d="M53.9216 32.0042H52.965V3.46117C52.9639 2.54356 52.5913 1.66384 51.929 1.01499C51.2667 0.366136 50.3687 0.00111836 49.4321 0H5.56794C4.6313 0.00111836 3.73334 0.366136 3.07104 1.01499C2.40873 1.66384 2.03614 2.54356 2.035 3.46117V32.0042H1.07843C0.792414 32.0042 0.51811 32.1155 0.315865 32.3137C0.11362 32.5118 0 32.7805 0 33.0607V35.4569C0 36.6618 0.488567 37.8174 1.35822 38.6694C2.22787 39.5214 3.40738 40 4.63725 40H50.3627C51.5926 40 52.7721 39.5214 53.6418 38.6694C54.5114 37.8174 55 36.6618 55 35.4569V33.0607C55 32.7805 54.8864 32.5118 54.6841 32.3137C54.4819 32.1155 54.2076 32.0042 53.9216 32.0042ZM4.19186 3.46117C4.19215 3.10371 4.33722 2.76098 4.59522 2.50821C4.85322 2.25545 5.20307 2.11333 5.56794 2.11305H49.4321C49.7969 2.11333 50.1468 2.25545 50.4048 2.50821C50.6628 2.76098 50.8079 3.10371 50.8081 3.46117V32.0042H4.19186V3.46117ZM52.8431 35.4569C52.8431 36.1014 52.5818 36.7195 52.1166 37.1752C51.6515 37.6309 51.0206 37.887 50.3627 37.887H4.63725C3.97941 37.887 3.34852 37.6309 2.88335 37.1752C2.41819 36.7195 2.15686 36.1014 2.15686 35.4569V34.1173H21.3249V34.4279C21.3255 34.9632 21.5428 35.4764 21.9292 35.8549C22.3155 36.2335 22.8394 36.4464 23.3858 36.4469H31.6142C32.1606 36.4464 32.6845 36.2335 33.0708 35.8549C33.4572 35.4764 33.6745 34.9632 33.6751 34.4279V34.1173H52.8431V35.4569Z" fill="#6A51A2"/>
<path d="M48.2318 26.875H33.9447C33.7803 26.875 33.6471 27.0149 33.6471 27.1875V29.6875C33.6471 29.8601 33.7803 30 33.9447 30H48.2318C48.3962 30 48.5294 29.8601 48.5294 29.6875V27.1875C48.5294 27.0149 48.3962 26.875 48.2318 26.875ZM47.9341 29.375H34.2424V27.5H35.4329V28.125C35.4329 28.2976 35.5662 28.4375 35.7306 28.4375C35.8949 28.4375 36.0282 28.2976 36.0282 28.125V27.5H37.2188V28.125C37.2188 28.2976 37.3521 28.4375 37.5165 28.4375C37.6808 28.4375 37.8141 28.2976 37.8141 28.125V27.5H39.0047V28.125C39.0047 28.2976 39.1379 28.4375 39.3024 28.4375C39.4668 28.4375 39.6 28.2976 39.6 28.125V27.5H40.7906V28.125C40.7906 28.2976 40.9238 28.4375 41.0882 28.4375C41.2527 28.4375 41.3859 28.2976 41.3859 28.125V27.5H42.5765V28.125C42.5765 28.2976 42.7097 28.4375 42.8741 28.4375C43.0385 28.4375 43.1718 28.2976 43.1718 28.125V27.5H44.3624V28.125C44.3624 28.2976 44.4956 28.4375 44.66 28.4375C44.8244 28.4375 44.9576 28.2976 44.9576 28.125V27.5H46.1482V28.125C46.1482 28.2976 46.2815 28.4375 46.4459 28.4375C46.6103 28.4375 46.7435 28.2976 46.7435 28.125V27.5H47.9341V29.375Z" fill="#6A51A2"/>
<path d="M47.4095 5.33654C47.8631 5.33654 48.2308 4.98138 48.2308 4.54327C48.2308 4.10516 47.8631 3.75 47.4095 3.75C46.9559 3.75 46.5882 4.10516 46.5882 4.54327C46.5882 4.98138 46.9559 5.33654 47.4095 5.33654Z" fill="#6A51A2"/>
<path d="M31.8823 12.5V12H31.3823H6.14706H5.64706V12.5V26.875V27.375H6.14706H31.3823H31.8823V26.875V12.5ZM33.4706 26.875V27.375H33.9706H48.5294H49.0294V26.875V16.25V15.75H48.5294H33.9706H33.4706V16.25V26.875ZM48.5294 12.375H49.0294V11.875V8.75V8.25H48.5294H35.9118H35.4118V8.75V11.875V12.375H35.9118H48.5294ZM49.0294 13.125V12.625H48.5294H38.1765H37.6765V13.125V14.6875V15.1875H38.1765H48.5294H49.0294V14.6875V13.125Z" stroke="#6A51A2"/>
</g>
</svg>
