<svg width="55" height="40" viewBox="0 0 55 40" fill="none" xmlns="http://www.w3.org/2000/svg">
<g opacity="0.75">
<path d="M53.9216 32.0042H52.965V3.46117C52.9639 2.54356 52.5913 1.66384 51.929 1.01499C51.2667 0.366136 50.3687 0.00111836 49.4321 0H5.56794C4.6313 0.00111836 3.73334 0.366136 3.07104 1.01499C2.40873 1.66384 2.03614 2.54356 2.035 3.46117V32.0042H1.07843C0.792414 32.0042 0.51811 32.1155 0.315865 32.3137C0.11362 32.5118 0 32.7805 0 33.0607V35.4569C0 36.6618 0.488567 37.8174 1.35822 38.6694C2.22787 39.5214 3.40738 40 4.63725 40H50.3627C51.5926 40 52.7721 39.5214 53.6418 38.6694C54.5114 37.8174 55 36.6618 55 35.4569V33.0607C55 32.7805 54.8864 32.5118 54.6841 32.3137C54.4819 32.1155 54.2076 32.0042 53.9216 32.0042ZM4.19186 3.46117C4.19215 3.10371 4.33722 2.76098 4.59522 2.50821C4.85322 2.25545 5.20307 2.11333 5.56794 2.11305H49.4321C49.7969 2.11333 50.1468 2.25545 50.4048 2.50821C50.6628 2.76098 50.8079 3.10371 50.8081 3.46117V32.0042H4.19186V3.46117ZM52.8431 35.4569C52.8431 36.1014 52.5818 36.7195 52.1166 37.1752C51.6515 37.6309 51.0206 37.887 50.3627 37.887H4.63725C3.97941 37.887 3.34852 37.6309 2.88335 37.1752C2.41819 36.7195 2.15686 36.1014 2.15686 35.4569V34.1173H21.3249V34.4279C21.3255 34.9632 21.5428 35.4764 21.9292 35.8549C22.3155 36.2335 22.8394 36.4464 23.3858 36.4469H31.6142C32.1606 36.4464 32.6845 36.2335 33.0708 35.8549C33.4572 35.4764 33.6745 34.9632 33.6751 34.4279V34.1173H52.8431V35.4569Z" fill="#6A51A2"/>
<path d="M21.3372 25.7624C21.1418 25.261 20.7968 24.8297 20.3477 24.5251C19.8986 24.2205 19.3663 24.0569 18.821 24.0559H17.0205C16.3042 24.0559 15.6172 24.3361 15.1107 24.8348C14.6042 25.3336 14.3197 26.0101 14.3197 26.7154C14.3197 27.4208 14.6042 28.0973 15.1107 28.596C15.6172 29.0948 16.3042 29.375 17.0205 29.375H18.821C19.3899 29.3749 19.9443 29.1978 20.4051 28.8691C20.8658 28.5403 21.2094 28.0767 21.3867 27.5443C22.5549 27.3926 23.6395 26.8647 24.4715 26.043C25.3035 25.2213 25.8363 24.1518 25.987 23.0009C26.5248 22.8068 26.9892 22.455 27.3176 21.9929C27.646 21.5308 27.8226 20.9807 27.8235 20.4167V18.023C27.8223 17.4661 27.6495 16.9226 27.3281 16.4644C27.0066 16.0062 26.5516 15.6548 26.023 15.4566V14.672C26.023 12.4383 25.122 10.2962 23.5181 8.71674C21.9142 7.13731 19.7388 6.25 17.4706 6.25C15.2023 6.25 13.027 7.13731 11.4231 8.71674C9.81921 10.2962 8.91816 12.4383 8.91816 14.672V15.4566C8.38961 15.6548 7.93456 16.0062 7.61309 16.4644C7.29162 16.9226 7.11887 17.4661 7.11765 18.023V20.4167C7.11765 21.1467 7.41215 21.8469 7.93637 22.3631C8.46059 22.8793 9.17158 23.1693 9.91294 23.1693H10.6737C11.1628 23.1682 11.6315 22.9763 11.9773 22.6357C12.3232 22.2952 12.518 21.8336 12.5192 21.352V17.0922C12.5182 16.6181 12.3296 16.1631 11.9934 15.8238C11.6572 15.4844 11.1999 15.2875 10.7187 15.2748V14.672C10.7187 12.9086 11.43 11.2174 12.6963 9.97048C13.9625 8.72356 15.6799 8.02305 17.4706 8.02305C19.2613 8.02305 20.9787 8.72356 22.2449 9.97048C23.5111 11.2174 24.2225 12.9086 24.2225 14.672V15.2748C23.7413 15.2875 23.284 15.4844 22.9478 15.8238C22.6116 16.1631 22.423 16.6181 22.422 17.0922V21.352C22.4197 21.8121 22.5951 22.2558 22.9127 22.5933C23.2304 22.9308 23.6664 23.1367 24.1325 23.1693C23.968 23.8199 23.617 24.4103 23.1214 24.87C22.6258 25.3297 22.0065 25.6395 21.3372 25.7624ZM18.821 27.6019H17.0205C16.7817 27.6019 16.5527 27.5085 16.3839 27.3423C16.215 27.176 16.1202 26.9505 16.1202 26.7154C16.1202 26.4803 16.215 26.2548 16.3839 26.0886C16.5527 25.9223 16.7817 25.8289 17.0205 25.8289H18.821C19.0597 25.8289 19.2887 25.9223 19.4575 26.0886C19.6264 26.2548 19.7212 26.4803 19.7212 26.7154C19.7212 26.9505 19.6264 27.176 19.4575 27.3423C19.2887 27.5085 19.0597 27.6019 18.821 27.6019ZM10.7187 21.352C10.7177 21.3634 10.7126 21.3741 10.7044 21.3822C10.6961 21.3903 10.6853 21.3953 10.6737 21.3963H9.91294C9.64911 21.3963 9.39608 21.2931 9.20952 21.1094C9.02296 20.9256 8.91816 20.6765 8.91816 20.4167V18.023C8.91816 17.7632 9.02296 17.5141 9.20952 17.3304C9.39608 17.1466 9.64911 17.0434 9.91294 17.0434H10.6737C10.686 17.0445 10.6975 17.0502 10.7058 17.0592C10.7141 17.0682 10.7187 17.08 10.7187 17.0922V21.352ZM24.2225 17.0922C24.2225 17.08 24.227 17.0682 24.2354 17.0592C24.2437 17.0502 24.2552 17.0445 24.2675 17.0434H25.0282C25.2921 17.0434 25.5451 17.1466 25.7316 17.3304C25.9182 17.5141 26.023 17.7632 26.023 18.023V20.4167C26.023 20.6765 25.9182 20.9256 25.7316 21.1094C25.5451 21.2931 25.2921 21.3963 25.0282 21.3963H24.2675C24.2559 21.3953 24.245 21.3903 24.2368 21.3822C24.2286 21.3741 24.2235 21.3634 24.2225 21.352V17.0922Z" fill="#6A51A2"/>
<path d="M45.074 10H33.5471C32.9739 10 32.4241 10.2155 32.0188 10.5991C31.6135 10.9827 31.3858 11.503 31.3858 12.0455V18.2977C31.3862 19.3939 31.0881 20.4717 30.5202 21.4272C29.9524 22.3826 29.1339 23.1834 28.1438 23.7523C28.0181 23.8317 27.922 23.9466 27.8691 24.0806C27.8162 24.2146 27.8092 24.3609 27.849 24.4989C27.8889 24.6369 27.9735 24.7596 28.0911 24.8495C28.2086 24.9394 28.3531 24.9921 28.504 25H45.074C45.6472 25 46.197 24.7845 46.6023 24.4009C47.0076 24.0173 47.2353 23.497 47.2353 22.9545V12.0455C47.2353 11.503 47.0076 10.9827 46.6023 10.5991C46.197 10.2155 45.6472 10 45.074 10ZM45.7944 22.9545C45.7944 23.1354 45.7185 23.3088 45.5834 23.4367C45.4483 23.5645 45.2651 23.6364 45.074 23.6364H30.5501C32.0061 22.2001 32.8215 20.2881 32.8266 18.2977V12.0455C32.8266 11.8646 32.9025 11.6912 33.0376 11.5633C33.1727 11.4355 33.356 11.3636 33.5471 11.3636H45.074C45.2651 11.3636 45.4483 11.4355 45.5834 11.5633C45.7185 11.6912 45.7944 11.8646 45.7944 12.0455V22.9545Z" fill="#6A51A2"/>
<path d="M41.9941 16.875H39.8588V15C39.8588 14.8342 39.7839 14.6753 39.6504 14.5581C39.5169 14.4408 39.3359 14.375 39.1471 14.375C38.9583 14.375 38.7773 14.4408 38.6438 14.5581C38.5103 14.6753 38.4353 14.8342 38.4353 15V16.875H36.3C36.1112 16.875 35.9302 16.9408 35.7967 17.0581C35.6632 17.1753 35.5883 17.3342 35.5883 17.5C35.5883 17.6658 35.6632 17.8247 35.7967 17.9419C35.9302 18.0592 36.1112 18.125 36.3 18.125H38.4353V20C38.4353 20.1658 38.5103 20.3247 38.6438 20.4419C38.7773 20.5592 38.9583 20.625 39.1471 20.625C39.3359 20.625 39.5169 20.5592 39.6504 20.4419C39.7839 20.3247 39.8588 20.1658 39.8588 20V18.125H41.9941C42.1829 18.125 42.3639 18.0592 42.4974 17.9419C42.6309 17.8247 42.7059 17.6658 42.7059 17.5C42.7059 17.3342 42.6309 17.1753 42.4974 17.0581C42.3639 16.9408 42.1829 16.875 41.9941 16.875Z" fill="#6A51A2"/>
</g>
</svg>
