<svg width="55" height="40" viewBox="0 0 55 40" fill="none" xmlns="http://www.w3.org/2000/svg">
<g opacity="0.75">
<path d="M53.9216 32.0042H52.965V3.46117C52.9639 2.54356 52.5913 1.66384 51.929 1.01499C51.2667 0.366136 50.3687 0.00111836 49.4321 0H5.56794C4.6313 0.00111836 3.73334 0.366136 3.07104 1.01499C2.40873 1.66384 2.03614 2.54356 2.035 3.46117V32.0042H1.07843C0.792414 32.0042 0.51811 32.1155 0.315865 32.3137C0.11362 32.5118 0 32.7805 0 33.0607V35.4569C0 36.6618 0.488567 37.8174 1.35822 38.6694C2.22787 39.5214 3.40738 40 4.63725 40H50.3627C51.5926 40 52.7721 39.5214 53.6418 38.6694C54.5114 37.8174 55 36.6618 55 35.4569V33.0607C55 32.7805 54.8864 32.5118 54.6841 32.3137C54.4819 32.1155 54.2076 32.0042 53.9216 32.0042ZM4.19186 3.46117C4.19215 3.10371 4.33722 2.76098 4.59522 2.50821C4.85322 2.25545 5.20307 2.11333 5.56794 2.11305H49.4321C49.7969 2.11333 50.1468 2.25545 50.4048 2.50821C50.6628 2.76098 50.8079 3.10371 50.8081 3.46117V32.0042H4.19186V3.46117ZM52.8431 35.4569C52.8431 36.1014 52.5818 36.7195 52.1166 37.1752C51.6515 37.6309 51.0206 37.887 50.3627 37.887H4.63725C3.97941 37.887 3.34852 37.6309 2.88335 37.1752C2.41819 36.7195 2.15686 36.1014 2.15686 35.4569V34.1173H21.3249V34.4279C21.3255 34.9632 21.5428 35.4764 21.9292 35.8549C22.3155 36.2335 22.8394 36.4464 23.3858 36.4469H31.6142C32.1606 36.4464 32.6845 36.2335 33.0708 35.8549C33.4572 35.4764 33.6745 34.9632 33.6751 34.4279V34.1173H52.8431V35.4569Z" fill="#6A51A2"/>
<path d="M40.8827 10.9219L40.8827 10.9229L41.0145 14.7114L41.0146 14.7139L41.0146 14.7139C41.0151 14.7329 41.0138 14.7495 41.0132 14.7565C41.0132 14.7568 41.0132 14.7571 41.0132 14.7573V14.7724L41.0124 14.7791C41.0105 14.8782 40.9993 14.9748 40.979 15.0688L40.7103 17.4073C40.7103 17.4074 40.7103 17.4075 40.7103 17.4076C40.6118 18.2724 40.1869 19.0844 39.5196 19.6963C39.5196 19.6963 39.5196 19.6964 39.5196 19.6964L36.975 22.0305C36.6012 22.3735 36.3636 22.8035 36.2813 23.2756C36.9549 23.538 37.4438 24.1599 37.4352 24.9015L37.4003 27.9003L37.4003 27.9004L37.1503 27.8975C37.1458 28.2952 36.9716 28.6681 36.6603 28.9477L40.8827 10.9219ZM40.8827 10.9219C40.8705 10.6069 40.7298 10.3146 40.4942 10.0987C40.2414 9.86643 39.8996 9.74557 39.5468 9.75012V9.75009M40.8827 10.9219L39.5468 9.75009M39.5468 9.75009L39.5424 9.75022M39.5468 9.75009L39.5424 9.75022M39.5424 9.75022C38.333 9.78695 37.342 10.7262 37.3804 11.8867L37.3804 11.8873M39.5424 9.75022L37.3804 11.8873M37.3804 11.8873L37.4436 13.6738L37.1371 14.8125C36.7246 14.8267 36.3348 14.9803 36.0365 15.254L36.0364 15.254M37.3804 11.8873L36.0364 15.254M36.0364 15.254L33.8703 17.2426L33.1402 17.3584C33.1401 17.3585 33.1399 17.3585 33.1398 17.3585C32.6349 17.437 32.155 17.6633 31.7878 18.0002L30.2813 19.3822C29.8184 19.807 29.5501 20.3764 29.5347 20.9857L29.5347 20.9859M36.0364 15.254L29.5347 20.9859M29.5347 20.9859L29.4805 23.2025C29.2441 23.2825 29.0206 23.4054 28.829 23.5775C28.4683 23.9011 28.2613 24.3392 28.2557 24.8108L28.2557 24.8108M29.5347 20.9859L28.2557 24.8108M28.2557 24.8108L28.2207 27.8097M28.2557 24.8108L28.2207 27.8097M34.4458 18.1498C34.4577 18.1434 34.4818 18.1293 34.506 18.1071L34.5061 18.1071L36.7937 16.0067C36.8932 15.9155 37.0407 15.8622 37.1999 15.8622C37.359 15.8623 37.5066 15.9155 37.6061 16.0067C37.8151 16.1985 37.8151 16.5016 37.6061 16.6934L34.9777 19.1047C34.7538 19.3101 34.7538 19.6522 34.9777 19.8575C35.0853 19.9563 35.223 20.0029 35.3561 20.0029C35.4892 20.0029 35.6269 19.9563 35.7346 19.8575L38.363 17.4461C39.0191 16.8442 39.0191 15.8558 38.363 15.254C38.3056 15.2013 38.2452 15.1555 38.1837 15.1149L38.5213 13.8616L38.5213 13.8616L38.5218 13.8596C38.5292 13.8312 38.5311 13.8058 38.5315 13.7892C38.5351 13.7723 38.5396 13.7451 38.5383 13.7132L38.5384 13.7138L38.2885 13.7226L38.5383 13.7113L34.4458 18.1498ZM34.4458 18.1498C34.4232 18.1656 34.3984 18.1804 34.3704 18.1939L34.369 18.1945C34.34 18.2083 34.3116 18.2186 34.2834 18.2265C34.279 18.2283 34.2736 18.2304 34.2676 18.2325C34.2549 18.237 34.2376 18.2421 34.2167 18.2454L34.4458 18.1498ZM38.4726 11.8533C38.4545 11.3079 38.9287 10.8139 39.5726 10.7936C39.6435 10.7926 39.6982 10.8156 39.7374 10.8516L39.9064 10.6674L39.7374 10.8516C39.7748 10.8859 39.7896 10.9222 39.7911 10.9594C39.7911 10.9595 39.7911 10.9596 39.7911 10.9597L39.9217 14.7093L39.6246 17.294L39.6246 17.294C39.5539 17.9094 39.25 18.4963 38.7624 18.9436L36.2178 21.2777L36.2178 21.2777C35.6694 21.7809 35.315 22.423 35.1978 23.1355L30.5761 23.0901L30.6268 21.0103C30.6268 21.0102 30.6268 21.0102 30.6268 21.0101M38.4726 11.8533L30.6268 21.0101M38.4726 11.8533L38.4726 11.8528L38.2227 11.8616L38.4726 11.8533L38.4726 11.8533ZM30.6268 21.0101C30.6351 20.6842 30.778 20.3732 31.0381 20.1348L31.0382 20.1347L32.5446 18.7528L30.6268 21.0101ZM28.2207 27.8097C28.2207 27.8098 28.2207 27.8098 28.2207 27.8098L28.2207 27.8097ZM36.3424 24.8899L36.3424 24.8899L36.3075 27.8889C36.3054 28.0669 36.2279 28.2391 36.0783 28.3732C35.9298 28.5064 35.7264 28.5809 35.5123 28.5811C35.5119 28.5811 35.5115 28.5811 35.5111 28.5811L30.0898 28.5279C29.8749 28.5258 29.6774 28.4467 29.5308 28.3091L29.5307 28.309C29.3847 28.1721 29.3111 27.9989 29.3132 27.8208L29.3132 27.8208L29.3482 24.8218C29.3482 24.8218 29.3482 24.8218 29.3482 24.8218C29.3503 24.6438 29.4278 24.4716 29.5774 24.3375L29.5775 24.3374C29.7256 24.2044 29.9218 24.1293 30.133 24.1293H30.133H30.1331H30.1331H30.1331H30.1331H30.1332H30.1332H30.1332H30.1332H30.1332H30.1333H30.1333H30.1333H30.1333H30.1334H30.1334H30.1334H30.1334H30.1334H30.1335H30.1335H30.1335H30.1335H30.1336H30.1336H30.1336H30.1336H30.1336H30.1337H30.1337H30.1337H30.1337H30.1338H30.1338H30.1338H30.1338H30.1338H30.1339H30.1339H30.1339H30.1339H30.134H30.134H30.134H30.134H30.1341H30.1341H30.1341H30.1341H30.1341H30.1342H30.1342H30.1342H30.1342H30.1343H30.1343H30.1343H30.1343H30.1343H30.1344H30.1344H30.1344H30.1344H30.1345H30.1345H30.1345H30.1345H30.1345H30.1346H30.1346H30.1346H30.1346H30.1347H30.1347H30.1347H30.1347H30.1348H30.1348H30.1348H30.1348H30.1348H30.1349H30.1349H30.1349H30.1349H30.135H30.135H30.135H30.135H30.135H30.1351H30.1351H30.1351H30.1351H30.1352H30.1352H30.1352H30.1352H30.1352H30.1353H30.1353H30.1353H30.1353H30.1354H30.1354H30.1354H30.1354H30.1355H30.1355H30.1355H30.1355H30.1355H30.1356H30.1356H30.1356H30.1356H30.1357H30.1357H30.1357H30.1357H30.1357H30.1358H30.1358H30.1358H30.1358H30.1359H30.1359H30.1359H30.1359H30.1359H30.136H30.136H30.136H30.136H30.1361H30.1361H30.1361H30.1361H30.1362H30.1362H30.1362H30.1362H30.1362H30.1363H30.1363H30.1363H30.1363H30.1364H30.1364H30.1364H30.1364H30.1364H30.1365H30.1365H30.1365H30.1365H30.1366H30.1366H30.1366H30.1366H30.1366H30.1367H30.1367H30.1367H30.1367H30.1368H30.1368H30.1368H30.1368H30.1369H30.1369H30.1369H30.1369H30.1369H30.137H30.137H30.137H30.137H30.1371H30.1371H30.1371H30.1371H30.1371H30.1372H30.1372H30.1372H30.1372H30.1373H30.1373H30.1373H30.1373H30.1373H30.1374H30.1374H30.1374H30.1374H30.1375H30.1375H30.1375H30.1375H30.1376H30.1376H30.1376H30.1376H30.1376H30.1377H30.1377H30.1377H30.1377H30.1378H30.1378H30.1378H30.1378H30.1378H30.1379H30.1379H30.1379H30.1379H30.138H30.138H30.138H30.138H30.138H30.1381H30.1381H30.1381H30.1381H30.1382H30.1382H30.1382H30.1382H30.1383H30.1383H30.1383H30.1383H30.1383H30.1384H30.1384H30.1384H30.1384H30.1385H30.1385H30.1385H30.1385H30.1385H30.1386H30.1386H30.1386H30.1386H30.1387H30.1387H30.1387H30.1387H30.1387H30.1388H30.1388H30.1388H30.1388H30.1389H30.1389H30.1389H30.1389H30.139H30.139H30.139H30.139H30.139H30.1391H30.1391H30.1391H30.1391H30.1392H30.1392H30.1392H30.1392H30.1392H30.1393H30.1393H30.1393H30.1393H30.1394H30.1394H30.1394H30.1394H30.1394H30.1395H30.1395H30.1395H30.1395H30.1396H30.1396H30.1396H30.1396H30.1396H30.1397H30.1397H30.1397H30.1397H30.1398H30.1398H30.1398H30.1398H30.1399H30.1399H30.1399H30.1399H30.1399H30.14H30.14H30.14H30.14H30.1401H30.1401H30.1401H30.1401H30.1401H30.1402H30.1402H30.1402H30.1402H30.1403H30.1403H30.1403H30.1403H30.1403H30.1404H30.1404H30.1404H30.1404H30.1405H30.1405H30.1405H30.1405H30.1406H30.1406H30.1406H30.1406H30.1406H30.1407H30.1407H30.1407H30.1407H30.1408H30.1408H30.1408H30.1408H30.1408H30.1409H30.1409H30.1409H30.1409H30.141H30.141H30.141H30.141H30.141H30.1411H30.1411H30.1411H30.1411H30.1412H30.1412H30.1412H30.1412H30.1413H30.1413H30.1413H30.1413H30.1413H30.1414H30.1414H30.1414H30.1414H30.1415H30.1415H30.1415H30.1415H30.1415H30.1416H30.1416H30.1416H30.1416H30.1417H30.1417H30.1417H30.1417H30.1417H30.1418H30.1418H30.1418H30.1418H30.1419H30.1419H30.1419H30.1419H30.142H30.142H30.142H30.142H30.142H30.1421H30.1421H30.1421H30.1421H30.1422H30.1422H30.1422H30.1422H30.1422H30.1423H30.1423H30.1423H30.1423H30.1424H30.1424H30.1424H30.1424H30.1424H30.1425H30.1425H30.1425H30.1425H30.1426H30.1426H30.1426H30.1426H30.1427H30.1427H30.1427H30.1427H30.1427H30.1428H30.1428H30.1428H30.1428H30.1429H30.1429H30.1429H30.1429H30.1429H30.143H30.143H30.143H30.143H30.1431H30.1431H30.1431H30.1431H30.1431H30.1432H30.1432H30.1432H30.1432H30.1433H30.1433H30.1433H30.1433H30.1434H30.1434H30.1434H30.1434H30.1434H30.1435H30.1435H30.1435H30.1435H30.1436H30.1436H30.1436H30.1436H30.1436H30.1437H30.1437H30.1437H30.1437H30.1438H30.1438H30.1438H30.1438H30.1438H30.1439H30.1439H30.1439H30.1439H30.144H30.144H30.144H30.144H30.1441H30.1441H30.1441H30.1441H30.1441H30.1442H30.1442H30.1442H30.1442H30.1443H30.1443H30.1443H30.1443H30.1443H30.1444H30.1444H30.1444H30.1444H30.1445H30.1445H30.1445H30.1445H30.1445H30.1446L35.5656 24.1826C36.0195 24.1873 36.3468 24.5246 36.3424 24.8899ZM33.3175 18.3878L34.2164 18.2454L32.5447 18.7527C32.7502 18.5644 33.0242 18.4334 33.3168 18.3879L33.3175 18.3878ZM34.265 18.2314L34.2667 18.231L34.265 18.2314ZM34.4358 18.155L34.4358 18.155L34.4358 18.155ZM41.009 14.7116C41.0088 14.7104 41.0086 14.7093 41.0084 14.7084L41.0082 14.7071L41.0076 14.7042L41.0074 14.7034L41.0073 14.7031C41.0072 14.7024 41.008 14.7057 41.009 14.7116Z" fill="#6A51A2" stroke="#6A51A2" stroke-width="0.5"/>
<path d="M35.2647 26.25C35.8007 26.25 36.2353 25.8303 36.2353 25.3125C36.2353 24.7947 35.8007 24.375 35.2647 24.375C34.7287 24.375 34.2941 24.7947 34.2941 25.3125C34.2941 25.8303 34.7287 26.25 35.2647 26.25Z" fill="#6A51A2"/>
<path d="M26.171 23.5773L26.1711 23.5773C26.5314 23.9009 26.7387 24.3389 26.7443 24.8108L26.7443 24.8109L26.7793 27.8098L26.7793 27.8099C26.7846 28.2813 26.5877 28.7237 26.2345 29.0546C25.8821 29.3849 25.4144 29.5668 24.9213 29.5717L24.9213 29.5717L19.4975 29.625L19.495 29.625L19.495 29.625H19.4949H19.4949H19.4949H19.4948H19.4948H19.4948H19.4947H19.4947H19.4946H19.4946H19.4946H19.4945H19.4945H19.4945H19.4944H19.4944H19.4944H19.4943H19.4943H19.4943H19.4942H19.4942H19.4942H19.4941H19.4941H19.4941H19.494H19.494H19.494H19.4939H19.4939H19.4938H19.4938H19.4938H19.4937H19.4937H19.4937H19.4936H19.4936H19.4936H19.4935H19.4935H19.4935H19.4934H19.4934H19.4934H19.4933H19.4933H19.4933H19.4932H19.4932H19.4932H19.4931H19.4931H19.4931H19.493H19.493H19.4929H19.4929H19.4929H19.4928H19.4928H19.4928H19.4927H19.4927H19.4927H19.4926H19.4926H19.4926H19.4925H19.4925H19.4925H19.4924H19.4924H19.4924H19.4923H19.4923H19.4923H19.4922H19.4922H19.4921H19.4921H19.4921H19.492H19.492H19.492H19.4919H19.4919H19.4919H19.4918H19.4918H19.4918H19.4917H19.4917H19.4917H19.4916H19.4916H19.4916H19.4915H19.4915H19.4915H19.4914H19.4914H19.4913H19.4913H19.4913H19.4912H19.4912H19.4912H19.4911H19.4911H19.4911H19.491H19.491H19.491H19.4909H19.4909H19.4909H19.4908H19.4908H19.4908H19.4907H19.4907H19.4907H19.4906H19.4906H19.4905H19.4905H19.4905H19.4904H19.4904H19.4904H19.4903H19.4903H19.4903H19.4902H19.4902H19.4902H19.4901H19.4901H19.4901H19.49H19.49H19.49H19.4899H19.4899H19.4898H19.4898H19.4898H19.4897H19.4897H19.4897H19.4896H19.4896H19.4896H19.4895H19.4895H19.4895H19.4894H19.4894H19.4894H19.4893H19.4893H19.4893H19.4892H19.4892H19.4892H19.4891H19.4891H19.489H19.489H19.489H19.4889H19.4889H19.4889H19.4888H19.4888H19.4888H19.4887H19.4887H19.4887H19.4886H19.4886H19.4886H19.4885H19.4885H19.4885H19.4884H19.4884H19.4883H19.4883H19.4883H19.4882H19.4882H19.4882H19.4881H19.4881H19.4881H19.488H19.488H19.488H19.4879H19.4879H19.4879H19.4878H19.4878H19.4878H19.4877H19.4877H19.4876H19.4876H19.4876H19.4875H19.4875H19.4875H19.4874H19.4874H19.4874H19.4873H19.4873H19.4873H19.4872H19.4872H19.4872H19.4871H19.4871H19.4871H19.487H19.487H19.4869H19.4869H19.4869H19.4868H19.4868H19.4868H19.4867H19.4867H19.4867H19.4866H19.4866H19.4866H19.4865H19.4865H19.4865H19.4864H19.4864H19.4864H19.4863H19.4863H19.4862H19.4862H19.4862H19.4861H19.4861H19.4861H19.486H19.486H19.486H19.4859H19.4859H19.4859H19.4858H19.4858H19.4858H19.4857H19.4857H19.4856H19.4856H19.4856H19.4855H19.4855H19.4855H19.4854H19.4854H19.4854H19.4853H19.4853H19.4853H19.4852H19.4852H19.4852H19.4851H19.4851H19.485H19.485H19.485H19.4849H19.4849H19.4849H19.4848H19.4848H19.4848H19.4847H19.4847H19.4847H19.4846H19.4846H19.4846H19.4845H19.4845H19.4844H19.4844H19.4844H19.4843H19.4843H19.4843H19.4842H19.4842H19.4842H19.4841H19.4841H19.4841H19.484H19.484H19.484H19.4839H19.4839H19.4838H19.4838H19.4838H19.4837H19.4837H19.4837H19.4836H19.4836H19.4836H19.4835H19.4835H19.4835H19.4834H19.4834H19.4834H19.4833H19.4833H19.4832H19.4832H19.4832H19.4831H19.4831H19.4831H19.483H19.483H19.483H19.4829H19.4829H19.4829H19.4828H19.4828H19.4827H19.4827H19.4827H19.4826H19.4826H19.4826H19.4825H19.4825H19.4825H19.4824H19.4824H19.4824H19.4823H19.4823H19.4823H19.4822H19.4822H19.4821H19.4821H19.4821H19.482H19.482H19.482H19.4819H19.4819H19.4819H19.4818H19.4818H19.4818H19.4817H19.4817H19.4816H19.4816H19.4816H19.4815H19.4815H19.4815H19.4814H19.4814H19.4814H19.4813H19.4813H19.4813H19.4812H19.4812H19.4811H19.4811H19.4811H19.481H19.481H19.481H19.4809H19.4809H19.4809H19.4808H19.4808H19.4808H19.4807H19.4807H19.4806H19.4806H19.4806H19.4805H19.4805H19.4805H19.4804H19.4804H19.4804H19.4803H19.4803H19.4802H19.4802H19.4802H19.4801H19.4801H19.4801H19.48H19.48H19.48H19.4799H19.4799H19.4799H19.4798H19.4798H19.4797H19.4797H19.4797H19.4796H19.4796H19.4796H19.4795H19.4795H19.4795H19.4794H19.4794H19.4794H19.4793H19.4793H19.4792H19.4792H19.4792H19.4791H19.4791H19.4791H19.479H19.479H19.479H19.4789H19.4789H19.4788H19.4788H19.4788H19.4787H19.4787H19.4787H19.4786H19.4786H19.4786H19.4785H19.4785H19.4784H19.4784H19.4784H19.4783H19.4783H19.4783H19.4782H19.4782H19.4782H19.4781H19.4781H19.478H19.478H19.478H19.4779H19.4779H19.4779H19.4778H19.4778H19.4778H19.4777H19.4777H19.4777H19.4776H19.4776H19.4775H19.4775H19.4775H19.4774H19.4774H19.4774H19.4773H19.4773H19.4773H19.4772H19.4772H19.4771H19.4771H19.4771H19.477H19.477H19.477H19.4769C18.9912 29.625 18.528 29.4523 18.173 29.1342L18.1727 29.1339C17.8125 28.81 17.6055 28.3721 17.5998 27.9008L17.5998 27.9007L17.5649 24.9018C17.5562 24.1602 18.045 23.5385 18.7187 23.276C18.6369 22.8043 18.3993 22.3742 18.0251 22.0309L15.4804 19.6967L15.4804 19.6967C14.8134 19.0848 14.3885 18.2728 14.2897 17.4077C14.2897 17.4077 14.2897 17.4077 14.2897 17.4077C14.2897 17.4077 14.2897 17.4076 14.2897 17.4076L14.021 15.0696C13.9998 14.9709 13.9881 14.869 13.9871 14.7647L13.9868 14.7603L13.9868 14.7601C13.9862 14.7533 13.9849 14.7366 13.9854 14.717L13.9855 14.7148H13.9855L14.1173 10.9242L14.1173 10.9232L14.1173 10.9232C14.1295 10.6072 14.2702 10.3148 14.5063 10.0985C14.7592 9.86625 15.1047 9.74681 15.4488 9.75007L15.4541 9.75011L15.4541 9.75017C16.6667 9.78718 17.6581 10.7257 17.6197 11.8864L17.6197 11.887L17.5564 13.674L17.863 14.8127C18.2755 14.8268 18.6651 14.9805 18.9633 15.2541L18.9634 15.2542L21.1296 17.2427L21.8608 17.3586C21.861 17.3586 21.8611 17.3586 21.8613 17.3586C22.3654 17.4369 22.8452 17.6632 23.2121 18L26.171 23.5773ZM26.171 23.5773C25.9787 23.4046 25.7564 23.2821 25.5195 23.2026L25.4653 20.9857L25.4653 20.9857C25.4502 20.3763 25.1819 19.8068 24.7187 19.3821C24.7186 19.3821 24.7186 19.382 24.7186 19.382L23.2122 18.0001L26.171 23.5773ZM18.7823 21.2781L18.7823 21.2781C19.331 21.7814 19.6854 22.4239 19.8024 23.1361L24.4242 23.0907L24.3735 21.0109C24.365 20.685 24.2222 20.3738 23.962 20.1351L22.4555 18.7531C22.2503 18.5648 21.976 18.4338 21.6846 18.3886L21.6838 18.3885L20.7851 18.246L20.7837 18.2458C20.7532 18.241 20.7287 18.2319 20.7159 18.2266C20.6883 18.2188 20.6606 18.2087 20.6323 18.1953C20.6015 18.1809 20.5757 18.165 20.5538 18.1496C20.5494 18.1472 20.5438 18.1441 20.5378 18.1403C20.526 18.133 20.5106 18.1223 20.4945 18.1076L20.4944 18.1075L18.2064 16.0071C18.1071 15.916 17.9596 15.8628 17.8003 15.8628C17.6411 15.8628 17.4936 15.916 17.3943 16.0071C17.1853 16.1989 17.1853 16.502 17.3943 16.6938L20.0228 19.1051C20.2466 19.3105 20.2466 19.6525 20.0228 19.8579C19.9151 19.9567 19.7774 20.0033 19.6443 20.0033C19.5112 20.0033 19.3735 19.9567 19.2659 19.8579L16.6373 17.4466C15.9813 16.8447 15.9813 15.8564 16.6372 15.2545C16.6947 15.2016 16.7552 15.1558 16.8166 15.1153L16.479 13.862L16.4789 13.8614C16.4711 13.8324 16.4692 13.8064 16.4689 13.7896C16.4652 13.7728 16.4608 13.7455 16.462 13.7136M18.7823 21.2781L16.7118 13.7231M18.7823 21.2781L16.2377 18.944C16.2377 18.944 16.2377 18.944 16.2376 18.9439C15.75 18.4963 15.4459 17.9098 15.3761 17.2942L15.3761 17.2938L15.079 14.7092L18.7823 21.2781ZM16.462 13.7136C16.462 13.713 16.4621 13.7124 16.4621 13.7117L16.7118 13.7231M16.462 13.7136L16.462 13.7142L16.7118 13.7231M16.462 13.7136L16.5278 11.8532L16.7776 11.8616M16.7118 13.7231L16.7776 11.8616M16.7776 11.8616L16.5278 11.8527L16.5278 11.8531L16.7776 11.8616ZM15.2095 10.9605L15.2096 10.96L14.9597 10.9513L15.2095 10.9609C15.2095 10.9607 15.2095 10.9606 15.2095 10.9605ZM16.4691 13.767L16.4691 13.7681L16.4691 13.767ZM20.5388 18.1388L20.5404 18.14L20.5388 18.1388ZM25.4693 28.3092L25.4691 28.3094C25.3226 28.4469 25.1251 28.526 24.9101 28.5282L19.4863 28.5814L19.4844 28.5815C19.2659 28.5852 19.0736 28.5099 18.9215 28.3735C18.7719 28.2394 18.6944 28.0672 18.6923 27.8892L18.6574 24.8902L18.6574 24.8902C18.653 24.5247 18.9805 24.1877 19.4341 24.1832L24.8539 24.1299C25.0874 24.1353 25.2761 24.2064 25.4226 24.3378C25.5722 24.472 25.6497 24.6441 25.6518 24.8222L25.6868 27.8208C25.6868 27.8209 25.6868 27.821 25.6868 27.8211C25.6886 27.9995 25.6151 28.1726 25.4693 28.3092Z" fill="#6A51A2" stroke="#6A51A2" stroke-width="0.5"/>
<path d="M19.7353 26.25C20.2713 26.25 20.7059 25.8303 20.7059 25.3125C20.7059 24.7947 20.2713 24.375 19.7353 24.375C19.1993 24.375 18.7647 24.7947 18.7647 25.3125C18.7647 25.8303 19.1993 26.25 19.7353 26.25Z" fill="#6A51A2"/>
<mask id="path-6-outside-1_286_134" maskUnits="userSpaceOnUse" x="19.7059" y="3.375" width="15" height="15" fill="black">
<rect fill="white" x="19.7059" y="3.375" width="15" height="15"/>
<path d="M28.8769 16.738V15.8149C29.3065 15.703 29.7152 15.5398 30.0971 15.3269L30.7739 15.9806C30.9274 16.129 31.1293 16.2032 31.3311 16.2032C31.533 16.2032 31.7345 16.129 31.8881 15.9806L32.7217 15.1755C33.0289 14.8788 33.0289 14.3959 32.7217 14.0992L32.045 13.4455C32.2651 13.0763 32.4342 12.6818 32.5499 12.2669H33.5053C33.9405 12.2669 34.2941 11.925 34.2941 11.5049V10.3695C34.2941 9.94917 33.9402 9.60755 33.5053 9.60755H32.5499C32.4339 9.19261 32.2651 8.79813 32.045 8.42894L32.7217 7.77526C33.0289 7.47855 33.0289 6.99568 32.7217 6.69897L31.8881 5.89352C31.581 5.59709 31.081 5.59738 30.7739 5.89352L30.0971 6.5472C29.7149 6.33461 29.3065 6.17119 28.8769 6.05922V5.13696C28.8769 4.7169 28.5229 4.375 28.088 4.375H26.9126C26.4774 4.375 26.1237 4.7169 26.1237 5.13696V6.06007C25.6941 6.17205 25.2857 6.33518 24.9035 6.54805L24.2267 5.89409C23.9196 5.59766 23.4197 5.59795 23.1125 5.89409L22.2789 6.69925C21.9717 6.99596 21.9717 7.47883 22.2789 7.77555L22.9556 8.42922C22.7355 8.79841 22.5664 9.19289 22.4507 9.60783H21.4947C21.0599 9.60783 20.7059 9.94974 20.7059 10.3698V11.5052C20.7059 11.9255 21.0599 12.2672 21.4947 12.2672H22.4504C22.5664 12.6821 22.7353 13.0766 22.9553 13.4458L22.2786 14.0995C21.9714 14.3962 21.9714 14.879 22.2786 15.1757L23.1122 15.9809C23.2658 16.1293 23.4676 16.2034 23.6692 16.2034C23.871 16.2034 24.0729 16.1293 24.2265 15.9809L24.9032 15.3272C25.2854 15.5398 25.6938 15.7032 26.1234 15.8152V16.738C26.1234 17.1581 26.4774 17.5 26.9123 17.5H28.0877C28.5229 17.5 28.8769 17.1581 28.8769 16.738ZM28.2884 16.738C28.2884 16.8466 28.2004 16.9316 28.088 16.9316H26.9126C26.8002 16.9316 26.7122 16.8466 26.7122 16.738V15.5969C26.7122 15.5881 26.7078 15.5805 26.7069 15.5717C26.7051 15.552 26.701 15.5338 26.6951 15.5151C26.6898 15.4978 26.6836 15.4818 26.6751 15.4662C26.6663 15.45 26.6557 15.4358 26.6439 15.4216C26.6321 15.4074 26.6201 15.3946 26.6057 15.3827C26.5915 15.371 26.5765 15.3619 26.5601 15.3531C26.5427 15.3437 26.5253 15.336 26.5059 15.3301C26.4971 15.3272 26.4903 15.3215 26.4812 15.3196C25.9551 15.207 25.4614 15.0098 25.0138 14.7327C25.0059 14.7278 24.9968 14.7273 24.9885 14.7233C24.9706 14.7142 24.9526 14.7077 24.9335 14.7025C24.9153 14.6974 24.8976 14.6937 24.8791 14.6923C24.8605 14.6909 24.8426 14.6917 24.8241 14.6934C24.8049 14.6954 24.7873 14.6983 24.769 14.7037C24.7514 14.7088 24.7355 14.7162 24.719 14.7247C24.7014 14.7338 24.6852 14.7438 24.6696 14.7565C24.6625 14.7622 24.6537 14.7645 24.6469 14.771L23.8104 15.579C23.7324 15.6541 23.6062 15.6538 23.5285 15.579L22.6949 14.7739C22.6576 14.7378 22.637 14.6895 22.637 14.6377C22.637 14.586 22.6576 14.5374 22.6949 14.5016L23.5315 13.6936C23.5382 13.6871 23.5406 13.6788 23.5465 13.6717C23.5594 13.6567 23.57 13.641 23.5791 13.624C23.588 13.6081 23.5956 13.5924 23.6009 13.5754C23.6065 13.558 23.6094 13.5407 23.6115 13.5225C23.6136 13.5043 23.6144 13.487 23.6127 13.4688C23.6112 13.4509 23.6074 13.4344 23.6021 13.4168C23.5968 13.398 23.59 13.3807 23.5806 13.3634C23.5765 13.3554 23.5759 13.3466 23.5709 13.3389C23.284 12.9066 23.0798 12.4297 22.9636 11.9216C22.9615 11.9128 22.9553 11.9062 22.9527 11.8977C22.9465 11.8792 22.9386 11.8625 22.9289 11.846C22.9194 11.8298 22.9097 11.815 22.8977 11.8011C22.8859 11.7877 22.873 11.7766 22.8588 11.7655C22.8432 11.7533 22.8276 11.7425 22.81 11.7337C22.795 11.726 22.7794 11.7209 22.7629 11.7158C22.7423 11.7096 22.7223 11.7053 22.7005 11.7036C22.692 11.7027 22.6849 11.6988 22.6761 11.6988H21.4947C21.3823 11.6988 21.2944 11.6138 21.2944 11.5052V10.3698C21.2944 10.2612 21.3823 10.1762 21.4947 10.1762H22.6761C22.6761 10.1762 22.6761 10.1762 22.6764 10.1762C22.7135 10.1762 22.7491 10.1683 22.7826 10.1555C22.7941 10.1512 22.8035 10.1441 22.8144 10.1384C22.835 10.1276 22.8544 10.1163 22.8718 10.1009C22.8821 10.0921 22.89 10.0819 22.8988 10.0717C22.9127 10.0557 22.925 10.039 22.935 10.0199C22.9418 10.0071 22.9471 9.99436 22.9518 9.98043C22.955 9.97105 22.9612 9.96309 22.9636 9.95315C23.0798 9.44498 23.2843 8.96808 23.5709 8.5358C23.5759 8.52813 23.5765 8.51932 23.5806 8.51136C23.59 8.49402 23.5968 8.47669 23.6021 8.45793C23.6071 8.44059 23.6109 8.42382 23.6127 8.40592C23.6141 8.38773 23.6136 8.37039 23.6115 8.3522C23.6094 8.33401 23.6065 8.31696 23.6009 8.29934C23.5956 8.28229 23.588 8.26666 23.5791 8.25074C23.5697 8.23369 23.5594 8.21806 23.5465 8.20299C23.5406 8.19617 23.5382 8.18765 23.5315 8.18111L22.6949 7.37311C22.6576 7.33701 22.637 7.2887 22.637 7.23697C22.637 7.18525 22.6576 7.13693 22.6949 7.10084L23.5285 6.29568C23.6062 6.22065 23.7327 6.22065 23.8104 6.29568L24.6469 7.10368C24.6481 7.10482 24.6496 7.1051 24.6507 7.10624C24.6758 7.12983 24.7046 7.14745 24.7355 7.16052C24.7425 7.16365 24.7496 7.16592 24.757 7.16848C24.7884 7.17928 24.8211 7.18667 24.8544 7.18695C24.8547 7.18695 24.8547 7.18695 24.8549 7.18695C24.8549 7.18695 24.8549 7.18695 24.8552 7.18695C24.8885 7.18695 24.9214 7.17956 24.9535 7.16848C24.9629 7.16535 24.9715 7.1608 24.9806 7.15654C24.9915 7.15143 25.0032 7.14858 25.0135 7.14205C25.4611 6.86494 25.9548 6.6677 26.4809 6.55516C26.49 6.55317 26.4968 6.5472 26.5056 6.54464C26.525 6.53867 26.5424 6.531 26.5598 6.52162C26.5762 6.51281 26.5912 6.50343 26.6054 6.49206C26.6198 6.48013 26.6319 6.46734 26.6436 6.45313C26.6554 6.43892 26.666 6.42471 26.6748 6.40851C26.6833 6.39288 26.6892 6.37668 26.6948 6.35962C26.7007 6.34115 26.7048 6.32296 26.7066 6.30307C26.7075 6.29426 26.7119 6.28687 26.7119 6.27777V5.13696C26.7119 5.02839 26.8002 4.94342 26.9123 4.94342H28.0877C28.2001 4.94342 28.2881 5.02839 28.2881 5.13696V6.27806C28.2881 6.28687 28.2925 6.29454 28.2934 6.30335C28.2952 6.32296 28.2993 6.34115 28.3052 6.35991C28.3105 6.37724 28.3167 6.39316 28.3252 6.40879C28.334 6.42499 28.3446 6.4392 28.3564 6.45341C28.3682 6.46762 28.3802 6.48041 28.3946 6.49235C28.4088 6.504 28.4238 6.5131 28.4402 6.52191C28.4576 6.53128 28.475 6.53896 28.4944 6.54493C28.5032 6.54777 28.51 6.55345 28.5191 6.55544C29.0452 6.66799 29.5389 6.86523 29.9865 7.14233C29.9971 7.14887 30.0085 7.15171 30.0194 7.15683C30.0285 7.16109 30.0371 7.16564 30.0465 7.16876C30.0786 7.17985 30.1115 7.18724 30.1448 7.18724C30.1448 7.18724 30.1448 7.18724 30.1451 7.18724C30.1454 7.18724 30.1454 7.18724 30.1457 7.18724C30.1792 7.18724 30.2116 7.17956 30.243 7.16876C30.2504 7.1662 30.2572 7.16393 30.2645 7.1608C30.2954 7.14745 30.3243 7.12983 30.3493 7.10652C30.3504 7.10538 30.3519 7.1051 30.3531 7.10396L31.1896 6.29596C31.2673 6.22093 31.3938 6.22093 31.4715 6.29596L32.3051 7.10112C32.3424 7.13722 32.363 7.18553 32.363 7.23726C32.363 7.28898 32.3424 7.33758 32.3051 7.37339L31.4686 8.18139C31.4618 8.18793 31.4594 8.19617 31.4535 8.20328C31.4406 8.21834 31.43 8.23397 31.4209 8.25103C31.4121 8.26694 31.4044 8.28257 31.3991 8.29963C31.3935 8.31696 31.3906 8.3343 31.3885 8.35249C31.3865 8.37068 31.3856 8.38801 31.3873 8.4062C31.3888 8.42411 31.3926 8.44059 31.3979 8.45821C31.4032 8.47697 31.41 8.49431 31.4194 8.51164C31.4235 8.5196 31.4241 8.52841 31.4291 8.53609C31.716 8.96837 31.9202 9.44527 32.0364 9.95343C32.0388 9.96338 32.0447 9.97134 32.0482 9.98071C32.0529 9.99464 32.0582 10.0071 32.065 10.0199C32.0753 10.039 32.0873 10.056 32.1015 10.0719C32.1103 10.0822 32.1182 10.0918 32.1282 10.1009C32.1459 10.1163 32.1653 10.1279 32.1862 10.1387C32.1968 10.1444 32.2062 10.1512 32.2174 10.1555C32.2509 10.1683 32.2865 10.1762 32.3236 10.1762C32.3236 10.1762 32.3236 10.1762 32.3239 10.1762H33.5053C33.6177 10.1762 33.7056 10.2612 33.7056 10.3698V11.5052C33.7056 11.6138 33.6177 11.6988 33.5053 11.6988H32.3239C32.3148 11.6988 32.3071 11.703 32.2983 11.7036C32.2774 11.7053 32.2583 11.7093 32.2386 11.7152C32.2212 11.7204 32.2047 11.726 32.1888 11.7343C32.1718 11.7431 32.1568 11.7533 32.1418 11.765C32.1274 11.7763 32.1141 11.7877 32.102 11.8016C32.09 11.8153 32.0803 11.8301 32.0712 11.846C32.0614 11.8627 32.0535 11.8792 32.0473 11.898C32.0444 11.9065 32.0385 11.913 32.0364 11.9219C31.9202 12.43 31.7157 12.9069 31.4291 13.3392C31.4241 13.3469 31.4235 13.3557 31.4194 13.3636C31.41 13.381 31.4032 13.3983 31.3979 13.4171C31.3929 13.4344 31.3891 13.4512 31.3873 13.4691C31.3859 13.4873 31.3865 13.5046 31.3885 13.5228C31.3906 13.541 31.3935 13.558 31.3991 13.5757C31.4044 13.5927 31.4121 13.6083 31.4209 13.6243C31.4303 13.6413 31.4406 13.6569 31.4535 13.672C31.4594 13.6788 31.4618 13.6874 31.4686 13.6939L32.3051 14.5019C32.3424 14.538 32.363 14.5863 32.363 14.638C32.363 14.6898 32.3424 14.7381 32.3051 14.7742L31.4715 15.5793C31.3938 15.6544 31.2676 15.6546 31.1896 15.5793L30.3531 14.7713C30.3466 14.7651 30.3378 14.7625 30.3307 14.7568C30.3148 14.744 30.2987 14.7338 30.2807 14.7247C30.2645 14.7165 30.2486 14.7094 30.2313 14.704C30.2127 14.6983 30.1945 14.6954 30.1754 14.6934C30.1571 14.6915 30.1395 14.6909 30.1212 14.6923C30.1024 14.6937 30.0845 14.6977 30.0659 14.7025C30.0468 14.7077 30.0294 14.7142 30.0115 14.723C30.0032 14.727 29.9941 14.7276 29.9862 14.7327C29.5386 15.0098 29.0449 15.207 28.5188 15.3196C28.5097 15.3215 28.5029 15.3275 28.4941 15.3301C28.4747 15.336 28.4573 15.3437 28.44 15.3531C28.4235 15.3619 28.4085 15.3713 28.3943 15.3827C28.3799 15.3946 28.3679 15.4074 28.3561 15.4216C28.3443 15.4358 28.3337 15.45 28.3249 15.4662C28.3164 15.4818 28.3105 15.498 28.3049 15.5151C28.299 15.5336 28.2949 15.5518 28.2931 15.5717C28.2922 15.5805 28.2878 15.5879 28.2878 15.5969V16.738H28.2884Z"/>
</mask>
<path d="M28.8769 16.738V15.8149C29.3065 15.703 29.7152 15.5398 30.0971 15.3269L30.7739 15.9806C30.9274 16.129 31.1293 16.2032 31.3311 16.2032C31.533 16.2032 31.7345 16.129 31.8881 15.9806L32.7217 15.1755C33.0289 14.8788 33.0289 14.3959 32.7217 14.0992L32.045 13.4455C32.2651 13.0763 32.4342 12.6818 32.5499 12.2669H33.5053C33.9405 12.2669 34.2941 11.925 34.2941 11.5049V10.3695C34.2941 9.94917 33.9402 9.60755 33.5053 9.60755H32.5499C32.4339 9.19261 32.2651 8.79813 32.045 8.42894L32.7217 7.77526C33.0289 7.47855 33.0289 6.99568 32.7217 6.69897L31.8881 5.89352C31.581 5.59709 31.081 5.59738 30.7739 5.89352L30.0971 6.5472C29.7149 6.33461 29.3065 6.17119 28.8769 6.05922V5.13696C28.8769 4.7169 28.5229 4.375 28.088 4.375H26.9126C26.4774 4.375 26.1237 4.7169 26.1237 5.13696V6.06007C25.6941 6.17205 25.2857 6.33518 24.9035 6.54805L24.2267 5.89409C23.9196 5.59766 23.4197 5.59795 23.1125 5.89409L22.2789 6.69925C21.9717 6.99596 21.9717 7.47883 22.2789 7.77555L22.9556 8.42922C22.7355 8.79841 22.5664 9.19289 22.4507 9.60783H21.4947C21.0599 9.60783 20.7059 9.94974 20.7059 10.3698V11.5052C20.7059 11.9255 21.0599 12.2672 21.4947 12.2672H22.4504C22.5664 12.6821 22.7353 13.0766 22.9553 13.4458L22.2786 14.0995C21.9714 14.3962 21.9714 14.879 22.2786 15.1757L23.1122 15.9809C23.2658 16.1293 23.4676 16.2034 23.6692 16.2034C23.871 16.2034 24.0729 16.1293 24.2265 15.9809L24.9032 15.3272C25.2854 15.5398 25.6938 15.7032 26.1234 15.8152V16.738C26.1234 17.1581 26.4774 17.5 26.9123 17.5H28.0877C28.5229 17.5 28.8769 17.1581 28.8769 16.738ZM28.2884 16.738C28.2884 16.8466 28.2004 16.9316 28.088 16.9316H26.9126C26.8002 16.9316 26.7122 16.8466 26.7122 16.738V15.5969C26.7122 15.5881 26.7078 15.5805 26.7069 15.5717C26.7051 15.552 26.701 15.5338 26.6951 15.5151C26.6898 15.4978 26.6836 15.4818 26.6751 15.4662C26.6663 15.45 26.6557 15.4358 26.6439 15.4216C26.6321 15.4074 26.6201 15.3946 26.6057 15.3827C26.5915 15.371 26.5765 15.3619 26.5601 15.3531C26.5427 15.3437 26.5253 15.336 26.5059 15.3301C26.4971 15.3272 26.4903 15.3215 26.4812 15.3196C25.9551 15.207 25.4614 15.0098 25.0138 14.7327C25.0059 14.7278 24.9968 14.7273 24.9885 14.7233C24.9706 14.7142 24.9526 14.7077 24.9335 14.7025C24.9153 14.6974 24.8976 14.6937 24.8791 14.6923C24.8605 14.6909 24.8426 14.6917 24.8241 14.6934C24.8049 14.6954 24.7873 14.6983 24.769 14.7037C24.7514 14.7088 24.7355 14.7162 24.719 14.7247C24.7014 14.7338 24.6852 14.7438 24.6696 14.7565C24.6625 14.7622 24.6537 14.7645 24.6469 14.771L23.8104 15.579C23.7324 15.6541 23.6062 15.6538 23.5285 15.579L22.6949 14.7739C22.6576 14.7378 22.637 14.6895 22.637 14.6377C22.637 14.586 22.6576 14.5374 22.6949 14.5016L23.5315 13.6936C23.5382 13.6871 23.5406 13.6788 23.5465 13.6717C23.5594 13.6567 23.57 13.641 23.5791 13.624C23.588 13.6081 23.5956 13.5924 23.6009 13.5754C23.6065 13.558 23.6094 13.5407 23.6115 13.5225C23.6136 13.5043 23.6144 13.487 23.6127 13.4688C23.6112 13.4509 23.6074 13.4344 23.6021 13.4168C23.5968 13.398 23.59 13.3807 23.5806 13.3634C23.5765 13.3554 23.5759 13.3466 23.5709 13.3389C23.284 12.9066 23.0798 12.4297 22.9636 11.9216C22.9615 11.9128 22.9553 11.9062 22.9527 11.8977C22.9465 11.8792 22.9386 11.8625 22.9289 11.846C22.9194 11.8298 22.9097 11.815 22.8977 11.8011C22.8859 11.7877 22.873 11.7766 22.8588 11.7655C22.8432 11.7533 22.8276 11.7425 22.81 11.7337C22.795 11.726 22.7794 11.7209 22.7629 11.7158C22.7423 11.7096 22.7223 11.7053 22.7005 11.7036C22.692 11.7027 22.6849 11.6988 22.6761 11.6988H21.4947C21.3823 11.6988 21.2944 11.6138 21.2944 11.5052V10.3698C21.2944 10.2612 21.3823 10.1762 21.4947 10.1762H22.6761C22.6761 10.1762 22.6761 10.1762 22.6764 10.1762C22.7135 10.1762 22.7491 10.1683 22.7826 10.1555C22.7941 10.1512 22.8035 10.1441 22.8144 10.1384C22.835 10.1276 22.8544 10.1163 22.8718 10.1009C22.8821 10.0921 22.89 10.0819 22.8988 10.0717C22.9127 10.0557 22.925 10.039 22.935 10.0199C22.9418 10.0071 22.9471 9.99436 22.9518 9.98043C22.955 9.97105 22.9612 9.96309 22.9636 9.95315C23.0798 9.44498 23.2843 8.96808 23.5709 8.5358C23.5759 8.52813 23.5765 8.51932 23.5806 8.51136C23.59 8.49402 23.5968 8.47669 23.6021 8.45793C23.6071 8.44059 23.6109 8.42382 23.6127 8.40592C23.6141 8.38773 23.6136 8.37039 23.6115 8.3522C23.6094 8.33401 23.6065 8.31696 23.6009 8.29934C23.5956 8.28229 23.588 8.26666 23.5791 8.25074C23.5697 8.23369 23.5594 8.21806 23.5465 8.20299C23.5406 8.19617 23.5382 8.18765 23.5315 8.18111L22.6949 7.37311C22.6576 7.33701 22.637 7.2887 22.637 7.23697C22.637 7.18525 22.6576 7.13693 22.6949 7.10084L23.5285 6.29568C23.6062 6.22065 23.7327 6.22065 23.8104 6.29568L24.6469 7.10368C24.6481 7.10482 24.6496 7.1051 24.6507 7.10624C24.6758 7.12983 24.7046 7.14745 24.7355 7.16052C24.7425 7.16365 24.7496 7.16592 24.757 7.16848C24.7884 7.17928 24.8211 7.18667 24.8544 7.18695C24.8547 7.18695 24.8547 7.18695 24.8549 7.18695C24.8549 7.18695 24.8549 7.18695 24.8552 7.18695C24.8885 7.18695 24.9214 7.17956 24.9535 7.16848C24.9629 7.16535 24.9715 7.1608 24.9806 7.15654C24.9915 7.15143 25.0032 7.14858 25.0135 7.14205C25.4611 6.86494 25.9548 6.6677 26.4809 6.55516C26.49 6.55317 26.4968 6.5472 26.5056 6.54464C26.525 6.53867 26.5424 6.531 26.5598 6.52162C26.5762 6.51281 26.5912 6.50343 26.6054 6.49206C26.6198 6.48013 26.6319 6.46734 26.6436 6.45313C26.6554 6.43892 26.666 6.42471 26.6748 6.40851C26.6833 6.39288 26.6892 6.37668 26.6948 6.35962C26.7007 6.34115 26.7048 6.32296 26.7066 6.30307C26.7075 6.29426 26.7119 6.28687 26.7119 6.27777V5.13696C26.7119 5.02839 26.8002 4.94342 26.9123 4.94342H28.0877C28.2001 4.94342 28.2881 5.02839 28.2881 5.13696V6.27806C28.2881 6.28687 28.2925 6.29454 28.2934 6.30335C28.2952 6.32296 28.2993 6.34115 28.3052 6.35991C28.3105 6.37724 28.3167 6.39316 28.3252 6.40879C28.334 6.42499 28.3446 6.4392 28.3564 6.45341C28.3682 6.46762 28.3802 6.48041 28.3946 6.49235C28.4088 6.504 28.4238 6.5131 28.4402 6.52191C28.4576 6.53128 28.475 6.53896 28.4944 6.54493C28.5032 6.54777 28.51 6.55345 28.5191 6.55544C29.0452 6.66799 29.5389 6.86523 29.9865 7.14233C29.9971 7.14887 30.0085 7.15171 30.0194 7.15683C30.0285 7.16109 30.0371 7.16564 30.0465 7.16876C30.0786 7.17985 30.1115 7.18724 30.1448 7.18724C30.1448 7.18724 30.1448 7.18724 30.1451 7.18724C30.1454 7.18724 30.1454 7.18724 30.1457 7.18724C30.1792 7.18724 30.2116 7.17956 30.243 7.16876C30.2504 7.1662 30.2572 7.16393 30.2645 7.1608C30.2954 7.14745 30.3243 7.12983 30.3493 7.10652C30.3504 7.10538 30.3519 7.1051 30.3531 7.10396L31.1896 6.29596C31.2673 6.22093 31.3938 6.22093 31.4715 6.29596L32.3051 7.10112C32.3424 7.13722 32.363 7.18553 32.363 7.23726C32.363 7.28898 32.3424 7.33758 32.3051 7.37339L31.4686 8.18139C31.4618 8.18793 31.4594 8.19617 31.4535 8.20328C31.4406 8.21834 31.43 8.23397 31.4209 8.25103C31.4121 8.26694 31.4044 8.28257 31.3991 8.29963C31.3935 8.31696 31.3906 8.3343 31.3885 8.35249C31.3865 8.37068 31.3856 8.38801 31.3873 8.4062C31.3888 8.42411 31.3926 8.44059 31.3979 8.45821C31.4032 8.47697 31.41 8.49431 31.4194 8.51164C31.4235 8.5196 31.4241 8.52841 31.4291 8.53609C31.716 8.96837 31.9202 9.44527 32.0364 9.95343C32.0388 9.96338 32.0447 9.97134 32.0482 9.98071C32.0529 9.99464 32.0582 10.0071 32.065 10.0199C32.0753 10.039 32.0873 10.056 32.1015 10.0719C32.1103 10.0822 32.1182 10.0918 32.1282 10.1009C32.1459 10.1163 32.1653 10.1279 32.1862 10.1387C32.1968 10.1444 32.2062 10.1512 32.2174 10.1555C32.2509 10.1683 32.2865 10.1762 32.3236 10.1762C32.3236 10.1762 32.3236 10.1762 32.3239 10.1762H33.5053C33.6177 10.1762 33.7056 10.2612 33.7056 10.3698V11.5052C33.7056 11.6138 33.6177 11.6988 33.5053 11.6988H32.3239C32.3148 11.6988 32.3071 11.703 32.2983 11.7036C32.2774 11.7053 32.2583 11.7093 32.2386 11.7152C32.2212 11.7204 32.2047 11.726 32.1888 11.7343C32.1718 11.7431 32.1568 11.7533 32.1418 11.765C32.1274 11.7763 32.1141 11.7877 32.102 11.8016C32.09 11.8153 32.0803 11.8301 32.0712 11.846C32.0614 11.8627 32.0535 11.8792 32.0473 11.898C32.0444 11.9065 32.0385 11.913 32.0364 11.9219C31.9202 12.43 31.7157 12.9069 31.4291 13.3392C31.4241 13.3469 31.4235 13.3557 31.4194 13.3636C31.41 13.381 31.4032 13.3983 31.3979 13.4171C31.3929 13.4344 31.3891 13.4512 31.3873 13.4691C31.3859 13.4873 31.3865 13.5046 31.3885 13.5228C31.3906 13.541 31.3935 13.558 31.3991 13.5757C31.4044 13.5927 31.4121 13.6083 31.4209 13.6243C31.4303 13.6413 31.4406 13.6569 31.4535 13.672C31.4594 13.6788 31.4618 13.6874 31.4686 13.6939L32.3051 14.5019C32.3424 14.538 32.363 14.5863 32.363 14.638C32.363 14.6898 32.3424 14.7381 32.3051 14.7742L31.4715 15.5793C31.3938 15.6544 31.2676 15.6546 31.1896 15.5793L30.3531 14.7713C30.3466 14.7651 30.3378 14.7625 30.3307 14.7568C30.3148 14.744 30.2987 14.7338 30.2807 14.7247C30.2645 14.7165 30.2486 14.7094 30.2313 14.704C30.2127 14.6983 30.1945 14.6954 30.1754 14.6934C30.1571 14.6915 30.1395 14.6909 30.1212 14.6923C30.1024 14.6937 30.0845 14.6977 30.0659 14.7025C30.0468 14.7077 30.0294 14.7142 30.0115 14.723C30.0032 14.727 29.9941 14.7276 29.9862 14.7327C29.5386 15.0098 29.0449 15.207 28.5188 15.3196C28.5097 15.3215 28.5029 15.3275 28.4941 15.3301C28.4747 15.336 28.4573 15.3437 28.44 15.3531C28.4235 15.3619 28.4085 15.3713 28.3943 15.3827C28.3799 15.3946 28.3679 15.4074 28.3561 15.4216C28.3443 15.4358 28.3337 15.45 28.3249 15.4662C28.3164 15.4818 28.3105 15.498 28.3049 15.5151C28.299 15.5336 28.2949 15.5518 28.2931 15.5717C28.2922 15.5805 28.2878 15.5879 28.2878 15.5969V16.738H28.2884Z" fill="#6A51A2"/>
<path d="M28.8769 16.738V15.8149C29.3065 15.703 29.7152 15.5398 30.0971 15.3269L30.7739 15.9806C30.9274 16.129 31.1293 16.2032 31.3311 16.2032C31.533 16.2032 31.7345 16.129 31.8881 15.9806L32.7217 15.1755C33.0289 14.8788 33.0289 14.3959 32.7217 14.0992L32.045 13.4455C32.2651 13.0763 32.4342 12.6818 32.5499 12.2669H33.5053C33.9405 12.2669 34.2941 11.925 34.2941 11.5049V10.3695C34.2941 9.94917 33.9402 9.60755 33.5053 9.60755H32.5499C32.4339 9.19261 32.2651 8.79813 32.045 8.42894L32.7217 7.77526C33.0289 7.47855 33.0289 6.99568 32.7217 6.69897L31.8881 5.89352C31.581 5.59709 31.081 5.59738 30.7739 5.89352L30.0971 6.5472C29.7149 6.33461 29.3065 6.17119 28.8769 6.05922V5.13696C28.8769 4.7169 28.5229 4.375 28.088 4.375H26.9126C26.4774 4.375 26.1237 4.7169 26.1237 5.13696V6.06007C25.6941 6.17205 25.2857 6.33518 24.9035 6.54805L24.2267 5.89409C23.9196 5.59766 23.4197 5.59795 23.1125 5.89409L22.2789 6.69925C21.9717 6.99596 21.9717 7.47883 22.2789 7.77555L22.9556 8.42922C22.7355 8.79841 22.5664 9.19289 22.4507 9.60783H21.4947C21.0599 9.60783 20.7059 9.94974 20.7059 10.3698V11.5052C20.7059 11.9255 21.0599 12.2672 21.4947 12.2672H22.4504C22.5664 12.6821 22.7353 13.0766 22.9553 13.4458L22.2786 14.0995C21.9714 14.3962 21.9714 14.879 22.2786 15.1757L23.1122 15.9809C23.2658 16.1293 23.4676 16.2034 23.6692 16.2034C23.871 16.2034 24.0729 16.1293 24.2265 15.9809L24.9032 15.3272C25.2854 15.5398 25.6938 15.7032 26.1234 15.8152V16.738C26.1234 17.1581 26.4774 17.5 26.9123 17.5H28.0877C28.5229 17.5 28.8769 17.1581 28.8769 16.738ZM28.2884 16.738C28.2884 16.8466 28.2004 16.9316 28.088 16.9316H26.9126C26.8002 16.9316 26.7122 16.8466 26.7122 16.738V15.5969C26.7122 15.5881 26.7078 15.5805 26.7069 15.5717C26.7051 15.552 26.701 15.5338 26.6951 15.5151C26.6898 15.4978 26.6836 15.4818 26.6751 15.4662C26.6663 15.45 26.6557 15.4358 26.6439 15.4216C26.6321 15.4074 26.6201 15.3946 26.6057 15.3827C26.5915 15.371 26.5765 15.3619 26.5601 15.3531C26.5427 15.3437 26.5253 15.336 26.5059 15.3301C26.4971 15.3272 26.4903 15.3215 26.4812 15.3196C25.9551 15.207 25.4614 15.0098 25.0138 14.7327C25.0059 14.7278 24.9968 14.7273 24.9885 14.7233C24.9706 14.7142 24.9526 14.7077 24.9335 14.7025C24.9153 14.6974 24.8976 14.6937 24.8791 14.6923C24.8605 14.6909 24.8426 14.6917 24.8241 14.6934C24.8049 14.6954 24.7873 14.6983 24.769 14.7037C24.7514 14.7088 24.7355 14.7162 24.719 14.7247C24.7014 14.7338 24.6852 14.7438 24.6696 14.7565C24.6625 14.7622 24.6537 14.7645 24.6469 14.771L23.8104 15.579C23.7324 15.6541 23.6062 15.6538 23.5285 15.579L22.6949 14.7739C22.6576 14.7378 22.637 14.6895 22.637 14.6377C22.637 14.586 22.6576 14.5374 22.6949 14.5016L23.5315 13.6936C23.5382 13.6871 23.5406 13.6788 23.5465 13.6717C23.5594 13.6567 23.57 13.641 23.5791 13.624C23.588 13.6081 23.5956 13.5924 23.6009 13.5754C23.6065 13.558 23.6094 13.5407 23.6115 13.5225C23.6136 13.5043 23.6144 13.487 23.6127 13.4688C23.6112 13.4509 23.6074 13.4344 23.6021 13.4168C23.5968 13.398 23.59 13.3807 23.5806 13.3634C23.5765 13.3554 23.5759 13.3466 23.5709 13.3389C23.284 12.9066 23.0798 12.4297 22.9636 11.9216C22.9615 11.9128 22.9553 11.9062 22.9527 11.8977C22.9465 11.8792 22.9386 11.8625 22.9289 11.846C22.9194 11.8298 22.9097 11.815 22.8977 11.8011C22.8859 11.7877 22.873 11.7766 22.8588 11.7655C22.8432 11.7533 22.8276 11.7425 22.81 11.7337C22.795 11.726 22.7794 11.7209 22.7629 11.7158C22.7423 11.7096 22.7223 11.7053 22.7005 11.7036C22.692 11.7027 22.6849 11.6988 22.6761 11.6988H21.4947C21.3823 11.6988 21.2944 11.6138 21.2944 11.5052V10.3698C21.2944 10.2612 21.3823 10.1762 21.4947 10.1762H22.6761C22.6761 10.1762 22.6761 10.1762 22.6764 10.1762C22.7135 10.1762 22.7491 10.1683 22.7826 10.1555C22.7941 10.1512 22.8035 10.1441 22.8144 10.1384C22.835 10.1276 22.8544 10.1163 22.8718 10.1009C22.8821 10.0921 22.89 10.0819 22.8988 10.0717C22.9127 10.0557 22.925 10.039 22.935 10.0199C22.9418 10.0071 22.9471 9.99436 22.9518 9.98043C22.955 9.97105 22.9612 9.96309 22.9636 9.95315C23.0798 9.44498 23.2843 8.96808 23.5709 8.5358C23.5759 8.52813 23.5765 8.51932 23.5806 8.51136C23.59 8.49402 23.5968 8.47669 23.6021 8.45793C23.6071 8.44059 23.6109 8.42382 23.6127 8.40592C23.6141 8.38773 23.6136 8.37039 23.6115 8.3522C23.6094 8.33401 23.6065 8.31696 23.6009 8.29934C23.5956 8.28229 23.588 8.26666 23.5791 8.25074C23.5697 8.23369 23.5594 8.21806 23.5465 8.20299C23.5406 8.19617 23.5382 8.18765 23.5315 8.18111L22.6949 7.37311C22.6576 7.33701 22.637 7.2887 22.637 7.23697C22.637 7.18525 22.6576 7.13693 22.6949 7.10084L23.5285 6.29568C23.6062 6.22065 23.7327 6.22065 23.8104 6.29568L24.6469 7.10368C24.6481 7.10482 24.6496 7.1051 24.6507 7.10624C24.6758 7.12983 24.7046 7.14745 24.7355 7.16052C24.7425 7.16365 24.7496 7.16592 24.757 7.16848C24.7884 7.17928 24.8211 7.18667 24.8544 7.18695C24.8547 7.18695 24.8547 7.18695 24.8549 7.18695C24.8549 7.18695 24.8549 7.18695 24.8552 7.18695C24.8885 7.18695 24.9214 7.17956 24.9535 7.16848C24.9629 7.16535 24.9715 7.1608 24.9806 7.15654C24.9915 7.15143 25.0032 7.14858 25.0135 7.14205C25.4611 6.86494 25.9548 6.6677 26.4809 6.55516C26.49 6.55317 26.4968 6.5472 26.5056 6.54464C26.525 6.53867 26.5424 6.531 26.5598 6.52162C26.5762 6.51281 26.5912 6.50343 26.6054 6.49206C26.6198 6.48013 26.6319 6.46734 26.6436 6.45313C26.6554 6.43892 26.666 6.42471 26.6748 6.40851C26.6833 6.39288 26.6892 6.37668 26.6948 6.35962C26.7007 6.34115 26.7048 6.32296 26.7066 6.30307C26.7075 6.29426 26.7119 6.28687 26.7119 6.27777V5.13696C26.7119 5.02839 26.8002 4.94342 26.9123 4.94342H28.0877C28.2001 4.94342 28.2881 5.02839 28.2881 5.13696V6.27806C28.2881 6.28687 28.2925 6.29454 28.2934 6.30335C28.2952 6.32296 28.2993 6.34115 28.3052 6.35991C28.3105 6.37724 28.3167 6.39316 28.3252 6.40879C28.334 6.42499 28.3446 6.4392 28.3564 6.45341C28.3682 6.46762 28.3802 6.48041 28.3946 6.49235C28.4088 6.504 28.4238 6.5131 28.4402 6.52191C28.4576 6.53128 28.475 6.53896 28.4944 6.54493C28.5032 6.54777 28.51 6.55345 28.5191 6.55544C29.0452 6.66799 29.5389 6.86523 29.9865 7.14233C29.9971 7.14887 30.0085 7.15171 30.0194 7.15683C30.0285 7.16109 30.0371 7.16564 30.0465 7.16876C30.0786 7.17985 30.1115 7.18724 30.1448 7.18724C30.1448 7.18724 30.1448 7.18724 30.1451 7.18724C30.1454 7.18724 30.1454 7.18724 30.1457 7.18724C30.1792 7.18724 30.2116 7.17956 30.243 7.16876C30.2504 7.1662 30.2572 7.16393 30.2645 7.1608C30.2954 7.14745 30.3243 7.12983 30.3493 7.10652C30.3504 7.10538 30.3519 7.1051 30.3531 7.10396L31.1896 6.29596C31.2673 6.22093 31.3938 6.22093 31.4715 6.29596L32.3051 7.10112C32.3424 7.13722 32.363 7.18553 32.363 7.23726C32.363 7.28898 32.3424 7.33758 32.3051 7.37339L31.4686 8.18139C31.4618 8.18793 31.4594 8.19617 31.4535 8.20328C31.4406 8.21834 31.43 8.23397 31.4209 8.25103C31.4121 8.26694 31.4044 8.28257 31.3991 8.29963C31.3935 8.31696 31.3906 8.3343 31.3885 8.35249C31.3865 8.37068 31.3856 8.38801 31.3873 8.4062C31.3888 8.42411 31.3926 8.44059 31.3979 8.45821C31.4032 8.47697 31.41 8.49431 31.4194 8.51164C31.4235 8.5196 31.4241 8.52841 31.4291 8.53609C31.716 8.96837 31.9202 9.44527 32.0364 9.95343C32.0388 9.96338 32.0447 9.97134 32.0482 9.98071C32.0529 9.99464 32.0582 10.0071 32.065 10.0199C32.0753 10.039 32.0873 10.056 32.1015 10.0719C32.1103 10.0822 32.1182 10.0918 32.1282 10.1009C32.1459 10.1163 32.1653 10.1279 32.1862 10.1387C32.1968 10.1444 32.2062 10.1512 32.2174 10.1555C32.2509 10.1683 32.2865 10.1762 32.3236 10.1762C32.3236 10.1762 32.3236 10.1762 32.3239 10.1762H33.5053C33.6177 10.1762 33.7056 10.2612 33.7056 10.3698V11.5052C33.7056 11.6138 33.6177 11.6988 33.5053 11.6988H32.3239C32.3148 11.6988 32.3071 11.703 32.2983 11.7036C32.2774 11.7053 32.2583 11.7093 32.2386 11.7152C32.2212 11.7204 32.2047 11.726 32.1888 11.7343C32.1718 11.7431 32.1568 11.7533 32.1418 11.765C32.1274 11.7763 32.1141 11.7877 32.102 11.8016C32.09 11.8153 32.0803 11.8301 32.0712 11.846C32.0614 11.8627 32.0535 11.8792 32.0473 11.898C32.0444 11.9065 32.0385 11.913 32.0364 11.9219C31.9202 12.43 31.7157 12.9069 31.4291 13.3392C31.4241 13.3469 31.4235 13.3557 31.4194 13.3636C31.41 13.381 31.4032 13.3983 31.3979 13.4171C31.3929 13.4344 31.3891 13.4512 31.3873 13.4691C31.3859 13.4873 31.3865 13.5046 31.3885 13.5228C31.3906 13.541 31.3935 13.558 31.3991 13.5757C31.4044 13.5927 31.4121 13.6083 31.4209 13.6243C31.4303 13.6413 31.4406 13.6569 31.4535 13.672C31.4594 13.6788 31.4618 13.6874 31.4686 13.6939L32.3051 14.5019C32.3424 14.538 32.363 14.5863 32.363 14.638C32.363 14.6898 32.3424 14.7381 32.3051 14.7742L31.4715 15.5793C31.3938 15.6544 31.2676 15.6546 31.1896 15.5793L30.3531 14.7713C30.3466 14.7651 30.3378 14.7625 30.3307 14.7568C30.3148 14.744 30.2987 14.7338 30.2807 14.7247C30.2645 14.7165 30.2486 14.7094 30.2313 14.704C30.2127 14.6983 30.1945 14.6954 30.1754 14.6934C30.1571 14.6915 30.1395 14.6909 30.1212 14.6923C30.1024 14.6937 30.0845 14.6977 30.0659 14.7025C30.0468 14.7077 30.0294 14.7142 30.0115 14.723C30.0032 14.727 29.9941 14.7276 29.9862 14.7327C29.5386 15.0098 29.0449 15.207 28.5188 15.3196C28.5097 15.3215 28.5029 15.3275 28.4941 15.3301C28.4747 15.336 28.4573 15.3437 28.44 15.3531C28.4235 15.3619 28.4085 15.3713 28.3943 15.3827C28.3799 15.3946 28.3679 15.4074 28.3561 15.4216C28.3443 15.4358 28.3337 15.45 28.3249 15.4662C28.3164 15.4818 28.3105 15.498 28.3049 15.5151C28.299 15.5336 28.2949 15.5518 28.2931 15.5717C28.2922 15.5805 28.2878 15.5879 28.2878 15.5969V16.738H28.2884Z" stroke="#6A51A2" stroke-width="0.6" mask="url(#path-6-outside-1_286_134)"/>
<path d="M30.5618 10.9374C30.5618 9.29873 29.1833 7.975 27.5 7.975C25.8166 7.975 24.4382 9.299 24.4382 10.9374C24.4382 12.5757 25.8163 13.9 27.5 13.9C29.1836 13.9 30.5618 12.576 30.5618 10.9374ZM27.5 13.0718C26.2738 13.0718 25.2851 12.1093 25.2851 10.9376C25.2851 9.76601 26.274 8.80351 27.5 8.80351C28.7259 8.80351 29.7148 9.76601 29.7148 10.9376C29.7148 12.1093 28.7262 13.0718 27.5 13.0718Z" fill="#6A51A2" stroke="#6A51A2" stroke-width="0.3"/>
</g>
</svg>
